<svg width="32" height="32" viewBox="0 0 32 32" fill="none" xmlns="http://www.w3.org/2000/svg">
  <!-- Background circle with gradient -->
  <circle cx="16" cy="16" r="16" fill="url(#gradient)" />
  
  <!-- Main star/sparkle shape -->
  <path d="M16 4L17.5 12.5L26 14L17.5 15.5L16 24L14.5 15.5L6 14L14.5 12.5L16 4Z" fill="white" />
  
  <!-- Inner circle for depth -->
  <circle cx="16" cy="16" r="4" fill="white" fill-opacity="0.3" />
  
  <!-- Small accent sparkles -->
  <path d="M8 8L8.5 10L10 8.5L8.5 7L8 8Z" fill="white" fill-opacity="0.8" />
  <path d="M24 8L24.5 10L26 8.5L24.5 7L24 8Z" fill="white" fill-opacity="0.8" />
  <path d="M8 24L8.5 26L10 24.5L8.5 23L8 24Z" fill="white" fill-opacity="0.8" />
  <path d="M24 24L24.5 26L26 24.5L24.5 23L24 24Z" fill="white" fill-opacity="0.8" />
  
  <!-- Gradient definition -->
  <defs>
    <linearGradient id="gradient" x1="0%" y1="0%" x2="100%" y2="100%">
      <stop offset="0%" style="stop-color:#4F46E5;stop-opacity:1" />
      <stop offset="100%" style="stop-color:#10B981;stop-opacity:1" />
    </linearGradient>
  </defs>
</svg>